<svg class="main-svg" xmlns="http://www.w3.org/2000/svg" xmlns:xlink="http://www.w3.org/1999/xlink" width="700" height="500" style="" viewBox="0 0 700 500"><rect x="0" y="0" width="700" height="500" style="fill: rgb(255, 255, 255); fill-opacity: 1;"/><defs id="defs-ba38eb"><g class="clips"><clipPath id="clipba38ebxyplot" class="plotclip"><rect width="433" height="320"/></clipPath><clipPath class="axesclip" id="clipba38ebx"><rect x="80" y="0" width="433" height="500"/></clipPath><clipPath class="axesclip" id="clipba38eby"><rect x="0" y="100" width="700" height="320"/></clipPath><clipPath class="axesclip" id="clipba38ebxy"><rect x="80" y="100" width="433" height="320"/></clipPath></g><g class="gradients"/></defs><g class="bglayer"><rect class="bg" x="80" y="100" width="433" height="320" style="fill: rgb(229, 236, 246); fill-opacity: 1; stroke-width: 0;"/></g><g class="layer-below"><g class="imagelayer"/><g class="shapelayer"/></g><g class="cartesianlayer"><g class="subplot xy"><g class="layer-subplot"><g class="shapelayer"/><g class="imagelayer"/></g><g class="gridlayer"><g class="x"><path class="xgrid crisp" transform="translate(210.17,0)" d="M0,100v320" style="stroke: rgb(255, 255, 255); stroke-opacity: 1; stroke-width: 1px;"/><path class="xgrid crisp" transform="translate(342.99,0)" d="M0,100v320" style="stroke: rgb(255, 255, 255); stroke-opacity: 1; stroke-width: 1px;"/><path class="xgrid crisp" transform="translate(475.81,0)" d="M0,100v320" style="stroke: rgb(255, 255, 255); stroke-opacity: 1; stroke-width: 1px;"/></g><g class="y"><path class="ygrid crisp" transform="translate(0,385.94)" d="M80,0h433" style="stroke: rgb(255, 255, 255); stroke-opacity: 1; stroke-width: 1px;"/><path class="ygrid crisp" transform="translate(0,341.36)" d="M80,0h433" style="stroke: rgb(255, 255, 255); stroke-opacity: 1; stroke-width: 1px;"/><path class="ygrid crisp" transform="translate(0,296.78)" d="M80,0h433" style="stroke: rgb(255, 255, 255); stroke-opacity: 1; stroke-width: 1px;"/><path class="ygrid crisp" transform="translate(0,252.21)" d="M80,0h433" style="stroke: rgb(255, 255, 255); stroke-opacity: 1; stroke-width: 1px;"/><path class="ygrid crisp" transform="translate(0,207.63)" d="M80,0h433" style="stroke: rgb(255, 255, 255); stroke-opacity: 1; stroke-width: 1px;"/><path class="ygrid crisp" transform="translate(0,163.05)" d="M80,0h433" style="stroke: rgb(255, 255, 255); stroke-opacity: 1; stroke-width: 1px;"/></g></g><g class="zerolinelayer"><path class="yzl zl crisp" transform="translate(0,118.47)" d="M80,0h433" style="stroke: rgb(255, 255, 255); stroke-opacity: 1; stroke-width: 2px;"/></g><path class="xlines-below"/><path class="ylines-below"/><g class="overlines-below"/><g class="xaxislayer-below"/><g class="yaxislayer-below"/><g class="overaxes-below"/><g class="plot" transform="translate(80, 100)" clip-path="url('#clipba38ebxyplot')"><g class="scatterlayer mlayer"><g class="trace scatter trace5ab4c0" style="stroke-miterlimit: 2; opacity: 1;"><g class="fills"/><g class="errorbars"/><g class="lines"><path class="js-line" d="M0,18.47L2.66,17.19L5.31,20.82L7.97,19.39L10.63,16.84L13.28,20.94L15.94,20.31L18.6,16.7L21.25,21.2L23.91,21.26L26.56,17.26L29.22,21.6L31.88,22.28L34.53,19.13L37.19,22.15L39.85,23.38L42.5,21L47.82,24.58L50.47,22.89L53.13,23.74L55.79,25.9L58.44,24.83L61.1,24.79L63.75,27.35L66.41,26.84L69.07,26.03L71.72,28.93L74.38,28.94L77.04,27.44L79.69,30.67L82.35,31.13L85.01,29.04L87.66,32.55L90.32,33.44L92.98,31.88L95.63,34.6L98.29,35.88L100.94,34.82L103.6,36.81L106.26,38.45L108.91,37.85L114.23,41.15L116.88,40.98L119.54,41.75L122.2,44.01L127.51,44.49L130.17,47.02L132.82,47.6L135.48,47.4L138.13,50.19L140.79,51.11L143.45,50.49L146.1,53.52L148.76,54.76L151.42,54.29L154.07,57.02L156.73,58.55L159.39,58.44L162.04,60.69L164.7,62.49L167.36,62.72L172.67,66.59L175.33,67.13L177.98,68.55L180.64,70.85L185.95,72.74L188.61,75.27L193.92,77.12L196.58,79.86L199.23,81.24L201.89,81.67L204.55,84.61L207.2,86.24L209.86,86.63L212.52,89.54L215.17,91.41L217.83,92.07L223.14,96.73L225.8,97.66L231.11,102.22L233.77,103.4L260.33,122.82L262.99,125.87L268.3,129.05L270.96,132.22L294.87,152.33L297.52,155.13L302.83,159.39L305.49,162.36L310.8,166.64L313.46,169.77L321.43,177.35L324.09,179.86L326.74,181.68L329.4,185.11L353.31,209.48L355.96,212.64L361.28,217.97L363.93,221.27L377.21,235.5L379.87,239.08L393.15,253.91L395.81,257.62L427.69,296.9L430.34,300.71L433,304" style="vector-effect: non-scaling-stroke; fill: none; stroke: rgb(99, 110, 250); stroke-opacity: 1; stroke-width: 2px; opacity: 1;"/></g><g class="points"/><g class="text"/></g><g class="trace scatter tracee517c1" style="stroke-miterlimit: 2; opacity: 1;"><g class="fills"/><g class="errorbars"/><g class="lines"><path class="js-line" d="M0,18.47L2.66,17.16L5.31,20.76L7.97,19.27L10.63,16.65L13.28,20.67L15.94,19.93L18.6,16.2L21.25,20.57L23.91,20.48L26.56,16.32L29.22,20.47L31.88,20.95L34.53,17.6L37.19,20.38L39.85,21.37L42.5,18.73L47.82,21.74L50.47,19.75L53.13,20.27L55.79,22.09L58.44,20.67L61.1,20.26L63.75,22.43L66.41,21.52L69.07,20.29L71.72,22.76L74.38,22.32L77.04,20.36L79.69,23.1L82.35,23.07L85.01,20.47L87.66,23.45L90.32,23.8L92.98,21.68L95.63,23.82L98.29,24.51L100.94,22.84L103.6,24.21L106.26,25.21L108.91,23.95L114.23,25.91L116.88,25.03L119.54,25.09L122.2,26.61L127.51,25.57L130.17,27.33L132.82,27.11L135.48,26.1L138.13,28.06L140.79,28.14L143.45,26.66L146.1,28.82L148.76,29.16L151.42,27.78L154.07,29.59L156.73,30.18L159.39,29.12L162.04,30.4L164.7,31.21L167.36,30.44L172.67,32.26L175.33,31.76L177.98,32.11L180.64,33.32L185.95,33.01L188.61,34.41L193.92,33.95L196.58,35.52L199.23,35.71L201.89,34.93L204.55,36.65L207.2,37.04L209.86,36.18L212.52,37.81L215.17,38.39L217.83,37.76L223.14,39.76L225.8,39.34L231.11,41.16L233.77,40.94L241.74,42.54L244.39,42.8L247.05,44.02L249.71,44.16L252.36,44.14L255.02,45.49L260.33,45.51L262.99,46.99L265.64,47.47L268.3,46.98L270.96,48.53L273.61,49.15L276.27,48.84L278.93,50.1L281.58,50.86L284.24,50.72L289.55,52.6L292.21,52.61L300.18,54.53L302.83,55.02L305.49,56.16L308.15,56.47L310.8,56.74L313.46,58L318.77,58.5L321.43,59.86L326.74,60.3L329.4,61.76L353.31,67.68L355.96,68.7L361.28,69.73L363.93,70.86L369.25,71.82L371.9,73.04L379.87,75.26L382.53,75.94L385.18,76.12L387.84,77.52L411.75,84.53L414.4,85.59L419.72,86.95L422.37,88.1L430.34,90.63L433,91.33" style="vector-effect: non-scaling-stroke; fill: none; stroke: rgb(239, 85, 59); stroke-opacity: 1; stroke-width: 2px; opacity: 1;"/></g><g class="points"/><g class="text"/></g><g class="trace scatter traced6a19b" style="stroke-miterlimit: 2; opacity: 1;"><g class="fills"/><g class="errorbars"/><g class="lines"><path class="js-line" d="M0,18.47L2.66,17.16L5.31,20.75L7.97,19.25L10.63,16.62L13.28,20.62L15.94,19.86L18.6,16.11L21.25,20.45L23.91,20.34L26.56,16.14L29.22,20.26L31.88,20.71L34.53,17.31L37.19,20.06L39.85,21L42.5,18.31L47.82,21.22L50.47,19.17L53.13,19.63L55.79,21.39L58.44,19.9L61.1,19.42L63.75,21.52L66.41,20.54L69.07,19.23L71.72,21.62L74.38,21.09L77.04,19.05L79.69,21.7L82.35,21.58L85.01,18.88L87.66,21.77L90.32,22.01L92.98,19.79L95.63,21.83L98.29,22.4L100.94,20.62L103.6,21.88L106.26,22.76L108.91,21.38L114.23,23.08L116.88,22.08L119.54,22L122.2,23.39L127.51,22.07L130.17,23.68L132.82,23.32L135.48,22.15L138.13,23.96L140.79,23.88L143.45,22.25L146.1,24.24L148.76,24.42L151.42,22.88L154.07,24.52L156.73,24.93L159.39,23.69L162.04,24.79L164.7,25.42L167.36,24.47L172.67,25.91L175.33,25.21L177.98,25.36L180.64,26.38L185.95,25.66L188.61,26.84L193.92,25.97L196.58,27.31L199.23,27.28L201.89,26.28L204.55,27.77L207.2,27.94L209.86,26.84L212.52,28.24L215.17,28.58L217.83,27.71L223.14,29.22L225.8,28.55L231.11,29.86L233.77,29.38L241.74,30.19L244.39,30.18L247.05,31.12L249.71,31L252.36,30.69L255.02,31.76L260.33,31.21L262.99,32.4L265.64,32.58L268.3,31.79L270.96,33.05L273.61,33.37L276.27,32.75L278.93,33.7L281.58,34.15L284.24,33.69L289.55,34.94L292.21,34.63L300.18,35.56L302.83,35.72L305.49,36.52L308.15,36.49L310.8,36.42L313.46,37.33L318.77,37.13L321.43,38.13L326.74,37.85L329.4,38.95L374.56,44.17L377.21,44.1L382.53,45.24L385.18,45L390.5,46.32L393.15,46.06L398.47,47.4L401.12,47.25L406.44,48.5L409.09,48.44L422.37,50.71L425.03,50.84L433,52.05" style="vector-effect: non-scaling-stroke; fill: none; stroke: rgb(0, 204, 150); stroke-opacity: 1; stroke-width: 2px; opacity: 1;"/></g><g class="points"/><g class="text"/></g><g class="trace scatter trace3fa302" style="stroke-miterlimit: 2; opacity: 1;"><g class="fills"/><g class="errorbars"/><g class="lines"><path class="js-line" d="M0,18.47L2.66,17.15L5.31,20.74L7.97,19.23L10.63,16.59L13.28,20.58L15.94,19.8L18.6,16.03L21.25,20.36L23.91,20.22L26.56,16L29.22,20.09L31.88,20.51L34.53,17.08L37.19,19.79L39.85,20.7L42.5,17.98L47.82,20.8L50.47,18.7L53.13,19.12L55.79,20.83L58.44,19.29L61.1,18.75L63.75,20.79L66.41,19.75L69.07,18.38L71.72,20.71L74.38,20.11L77.04,18L79.69,20.58L82.35,20.39L85.01,17.61L87.66,20.42L90.32,20.58L92.98,18.28L95.63,20.23L98.29,20.72L100.94,18.85L103.6,20.02L106.26,20.8L108.91,19.32L114.23,20.83L116.88,19.71L119.54,19.53L122.2,20.81L127.51,19.27L130.17,20.77L132.82,20.28L135.48,19L138.13,20.69L140.79,20.48L143.45,18.72L146.1,20.58L148.76,20.63L151.42,18.95L154.07,20.46L156.73,20.73L159.39,19.35L162.04,20.31L164.7,20.79L167.36,19.69L172.67,20.82L175.33,19.97L177.98,19.97L180.64,20.82L185.95,19.78L188.61,20.8L193.92,19.57L196.58,20.74L199.23,20.54L201.89,19.37L204.55,20.67L207.2,20.65L209.86,19.37L212.52,20.58L215.17,20.74L217.83,19.67L223.14,20.79L225.8,19.92L231.11,20.82L233.77,20.14L241.74,20.31L244.39,20.08L247.05,20.81L249.71,20.46L252.36,19.93L255.02,20.78L260.33,19.77L262.99,20.73L265.64,20.67L268.3,19.65L270.96,20.66L273.61,20.74L276.27,19.88L278.93,20.59L281.58,20.79L284.24,20.08L289.55,20.82L292.21,20.25L300.18,20.39L302.83,20.28L305.49,20.82L308.15,20.51L310.8,20.17L313.46,20.8L318.77,20.04L321.43,20.76L326.74,19.91L329.4,20.71L332.06,20.75L334.71,20.03L340.02,20.79L342.68,20.19L347.99,20.81L350.65,20.33L358.62,20.45L361.28,20.42L366.59,20.55L369.25,20.33L374.56,20.63L377.21,20.23L382.53,20.7L385.18,20.12L390.5,20.75L393.15,20.15L398.47,20.79L401.12,20.28L406.44,20.81L409.09,20.4L422.37,20.83L425.03,20.58L433,20.65" style="vector-effect: non-scaling-stroke; fill: none; stroke: rgb(171, 99, 250); stroke-opacity: 1; stroke-width: 2px; opacity: 1;"/></g><g class="points"/><g class="text"/></g></g></g><g class="overplot"/><path class="xlines-above crisp" d="M0,0" style="fill: none;"/><path class="ylines-above crisp" d="M0,0" style="fill: none;"/><g class="overlines-above"/><g class="xaxislayer-above"><g class="xtick"><text text-anchor="middle" x="0" y="433" transform="translate(210.17,0)" style="font-family: 'Open Sans', verdana, arial, sans-serif; font-size: 12px; fill: rgb(42, 63, 95); fill-opacity: 1; white-space: pre;">5</text></g><g class="xtick"><text text-anchor="middle" x="0" y="433" transform="translate(342.99,0)" style="font-family: 'Open Sans', verdana, arial, sans-serif; font-size: 12px; fill: rgb(42, 63, 95); fill-opacity: 1; white-space: pre;">10</text></g><g class="xtick"><text text-anchor="middle" x="0" y="433" transform="translate(475.81,0)" style="font-family: 'Open Sans', verdana, arial, sans-serif; font-size: 12px; fill: rgb(42, 63, 95); fill-opacity: 1; white-space: pre;">15</text></g></g><g class="yaxislayer-above"><g class="ytick"><text text-anchor="end" x="79" y="4.199999999999999" transform="translate(0,385.94)" style="font-family: 'Open Sans', verdana, arial, sans-serif; font-size: 12px; fill: rgb(42, 63, 95); fill-opacity: 1; white-space: pre;">−0.3</text></g><g class="ytick"><text text-anchor="end" x="79" y="4.199999999999999" transform="translate(0,341.36)" style="font-family: 'Open Sans', verdana, arial, sans-serif; font-size: 12px; fill: rgb(42, 63, 95); fill-opacity: 1; white-space: pre;">−0.25</text></g><g class="ytick"><text text-anchor="end" x="79" y="4.199999999999999" transform="translate(0,296.78)" style="font-family: 'Open Sans', verdana, arial, sans-serif; font-size: 12px; fill: rgb(42, 63, 95); fill-opacity: 1; white-space: pre;">−0.2</text></g><g class="ytick"><text text-anchor="end" x="79" y="4.199999999999999" transform="translate(0,252.21)" style="font-family: 'Open Sans', verdana, arial, sans-serif; font-size: 12px; fill: rgb(42, 63, 95); fill-opacity: 1; white-space: pre;">−0.15</text></g><g class="ytick"><text text-anchor="end" x="79" y="4.199999999999999" transform="translate(0,207.63)" style="font-family: 'Open Sans', verdana, arial, sans-serif; font-size: 12px; fill: rgb(42, 63, 95); fill-opacity: 1; white-space: pre;">−0.1</text></g><g class="ytick"><text text-anchor="end" x="79" y="4.199999999999999" transform="translate(0,163.05)" style="font-family: 'Open Sans', verdana, arial, sans-serif; font-size: 12px; fill: rgb(42, 63, 95); fill-opacity: 1; white-space: pre;">−0.05</text></g><g class="ytick"><text text-anchor="end" x="79" y="4.199999999999999" transform="translate(0,118.47)" style="font-family: 'Open Sans', verdana, arial, sans-serif; font-size: 12px; fill: rgb(42, 63, 95); fill-opacity: 1; white-space: pre;">0</text></g></g><g class="overaxes-above"/></g></g><g class="polarlayer"/><g class="ternarylayer"/><g class="geolayer"/><g class="funnelarealayer"/><g class="pielayer"/><g class="treemaplayer"/><g class="sunburstlayer"/><g class="glimages"/><defs id="topdefs-ba38eb"><g class="clips"/><clipPath id="legendba38eb"><rect width="166" height="86" x="0" y="0"/></clipPath></defs><g class="layer-above"><g class="imagelayer"/><g class="shapelayer"/></g><g class="infolayer"><g class="legend" pointer-events="all" transform="translate(521.6600000000001, 100)"><rect class="bg" shape-rendering="crispEdges" width="166" height="86" x="0" y="0" style="stroke: rgb(68, 68, 68); stroke-opacity: 1; fill: rgb(255, 255, 255); fill-opacity: 1; stroke-width: 0px;"/><g class="scrollbox" transform="translate(0, 0)" clip-path="url('#legendba38eb')"><g class="groups"><g class="traces" transform="translate(0, 14.5)" style="opacity: 1;"><text class="legendtext" text-anchor="start" x="40" y="4.680000000000001" style="font-family: 'Open Sans', verdana, arial, sans-serif; font-size: 12px; fill: rgb(42, 63, 95); fill-opacity: 1; white-space: pre;">Cap pore, R0 = 200</text><g class="layers" style="opacity: 1;"><g class="legendfill"/><g class="legendlines"><path class="js-line" d="M5,0h30" style="fill: none; stroke: rgb(99, 110, 250); stroke-opacity: 1; stroke-width: 2px;"/></g><g class="legendsymbols"><g class="legendpoints"/></g></g><rect class="legendtoggle" x="0" y="-9.5" width="160.015625" height="19" style="fill: rgb(0, 0, 0); fill-opacity: 0;"/></g><g class="traces" transform="translate(0, 33.5)" style="opacity: 1;"><text class="legendtext" text-anchor="start" x="40" y="4.680000000000001" style="font-family: 'Open Sans', verdana, arial, sans-serif; font-size: 12px; fill: rgb(42, 63, 95); fill-opacity: 1; white-space: pre;">Cap pore, R0 = 400</text><g class="layers" style="opacity: 1;"><g class="legendfill"/><g class="legendlines"><path class="js-line" d="M5,0h30" style="fill: none; stroke: rgb(239, 85, 59); stroke-opacity: 1; stroke-width: 2px;"/></g><g class="legendsymbols"><g class="legendpoints"/></g></g><rect class="legendtoggle" x="0" y="-9.5" width="160.015625" height="19" style="fill: rgb(0, 0, 0); fill-opacity: 0;"/></g><g class="traces" transform="translate(0, 52.5)" style="opacity: 1;"><text class="legendtext" text-anchor="start" x="40" y="4.680000000000001" style="font-family: 'Open Sans', verdana, arial, sans-serif; font-size: 12px; fill: rgb(42, 63, 95); fill-opacity: 1; white-space: pre;">Cap pore, R0 = 600</text><g class="layers" style="opacity: 1;"><g class="legendfill"/><g class="legendlines"><path class="js-line" d="M5,0h30" style="fill: none; stroke: rgb(0, 204, 150); stroke-opacity: 1; stroke-width: 2px;"/></g><g class="legendsymbols"><g class="legendpoints"/></g></g><rect class="legendtoggle" x="0" y="-9.5" width="160.015625" height="19" style="fill: rgb(0, 0, 0); fill-opacity: 0;"/></g><g class="traces" transform="translate(0, 71.5)" style="opacity: 1;"><text class="legendtext" text-anchor="start" x="40" y="4.680000000000001" style="font-family: 'Open Sans', verdana, arial, sans-serif; font-size: 12px; fill: rgb(42, 63, 95); fill-opacity: 1; white-space: pre;">Flat pore</text><g class="layers" style="opacity: 1;"><g class="legendfill"/><g class="legendlines"><path class="js-line" d="M5,0h30" style="fill: none; stroke: rgb(171, 99, 250); stroke-opacity: 1; stroke-width: 2px;"/></g><g class="legendsymbols"><g class="legendpoints"/></g></g><rect class="legendtoggle" x="0" y="-9.5" width="160.015625" height="19" style="fill: rgb(0, 0, 0); fill-opacity: 0;"/></g></g></g><rect class="scrollbar" rx="20" ry="3" width="0" height="0" x="0" y="0" style="fill: rgb(128, 139, 164); fill-opacity: 1;"/></g><g class="g-gtitle"><text class="gtitle" x="35" y="50" text-anchor="start" dy="0em" style="font-family: 'Open Sans', verdana, arial, sans-serif; font-size: 17px; fill: rgb(42, 63, 95); opacity: 1; font-weight: normal; white-space: pre;">Grounded minimum G paths</text></g><g class="g-xtitle"><text class="xtitle" x="296.5" y="460.8" text-anchor="middle" style="font-family: 'Open Sans', verdana, arial, sans-serif; font-size: 14px; fill: rgb(42, 63, 95); opacity: 1; font-weight: normal; white-space: pre;">Pore radius (nm)</text></g><g class="g-ytitle"><text class="ytitle" transform="rotate(-90,17.121875000000003,260)" x="17.121875000000003" y="260" text-anchor="middle" style="font-family: 'Open Sans', verdana, arial, sans-serif; font-size: 14px; fill: rgb(42, 63, 95); opacity: 1; font-weight: normal; white-space: pre;">G (kT)</text></g></g></svg>